<?xml version="1.0" encoding="UTF-8"?>
<svg version="1.1" xmlns="http://www.w3.org/2000/svg" width="512" height="512">
<path d="M0 0 C2.21035217 -0.00542629 4.42070072 -0.01255179 6.63104248 -0.02124023 C12.6103687 -0.039416 18.58941765 -0.03242968 24.56874847 -0.01972389 C30.83897119 -0.00956647 37.10917084 -0.01899718 43.37939453 -0.02526855 C54.58077652 -0.03300195 65.78205716 -0.02060487 76.98341489 -0.00023121 C87.12116691 0.01763764 97.25873566 0.01453286 107.39648438 -0.00390625 C119.19455925 -0.02535548 130.99254496 -0.03325746 142.79063988 -0.0214572 C149.02667004 -0.0152349 155.26257422 -0.0143519 161.49859619 -0.02760315 C167.36252601 -0.03919429 173.2261112 -0.03107601 179.09000397 -0.00802612 C181.23653848 -0.0027565 183.38310222 -0.00422271 185.52962494 -0.01307678 C200.62442292 -0.06957962 212.70994352 0.5682006 224.1796875 11.51757812 C232.43887523 20.16928171 235.67150295 29.48465608 235.53125 41.37109375 C235.48097656 43.02141602 235.48097656 43.02141602 235.4296875 44.70507812 C235.41164063 45.84783203 235.39359375 46.99058594 235.375 48.16796875 C235.32840385 50.95208859 235.26300788 53.73435701 235.1796875 56.51757812 C236.17174194 56.48929932 236.17174194 56.48929932 237.18383789 56.46044922 C244.15966666 56.34899273 250.7481562 56.95904534 257.6171875 58.14257812 C258.6585083 58.32151611 259.6998291 58.5004541 260.77270508 58.68481445 C290.87880245 64.12423813 319.62771733 76.91034461 343.1796875 96.51757812 C343.74494141 96.97745117 344.31019531 97.43732422 344.89257812 97.91113281 C381.51389994 127.72904479 405.54428571 171.45365566 410.90234375 218.46289062 C413.73781191 246.7865835 410.8712293 273.47541399 402.1796875 300.51757812 C401.94910645 301.2354248 401.71852539 301.95327148 401.48095703 302.69287109 C391.03947828 334.36611491 369.61519462 364.22553393 343.1796875 384.51757812 C342.24382812 385.29230469 341.30796875 386.06703125 340.34375 386.86523438 C316.64996338 406.08217442 287.50911039 417.76970423 257.6171875 422.89257812 C256.15502808 423.14442871 256.15502808 423.14442871 254.66333008 423.40136719 C248.12660764 424.43386271 241.79191346 424.7060616 235.1796875 424.51757812 C235.20063477 425.21729736 235.22158203 425.9170166 235.24316406 426.63793945 C235.32731684 429.86850076 235.37865821 433.09883038 235.4296875 436.33007812 C235.46320313 437.43029297 235.49671875 438.53050781 235.53125 439.6640625 C235.67150295 451.55050017 232.43887523 460.86587454 224.1796875 469.51757812 C211.83272529 481.3043757 198.46889684 481.10160549 182.359375 481.03515625 C180.14902283 481.04058254 177.93867428 481.04770804 175.72833252 481.05639648 C169.7490063 481.07457225 163.76995735 481.06758593 157.79062653 481.05488014 C151.52040381 481.04472272 145.25020416 481.05415343 138.97998047 481.0604248 C127.77859848 481.0681582 116.57731784 481.05576112 105.37596011 481.03538746 C95.23820809 481.01751861 85.10063934 481.02062339 74.96289062 481.0390625 C63.16481575 481.06051173 51.36683004 481.06841371 39.56873512 481.05661345 C33.33270496 481.05039115 27.09680078 481.04950815 20.86077881 481.0627594 C14.99684899 481.07435054 9.1332638 481.06623226 3.26937103 481.04318237 C1.12283652 481.03791275 -1.02372722 481.03937896 -3.17024994 481.04823303 C-18.26504792 481.10473587 -30.35056852 480.46695565 -41.8203125 469.51757812 C-50.27295764 460.66322312 -53.45169185 450.83127524 -53.30133057 438.74177551 C-53.30474827 437.7155723 -53.30816597 436.68936909 -53.31168723 435.63206881 C-53.31822777 432.22487897 -53.29635303 428.81849309 -53.27441406 425.41137695 C-53.27328476 422.95658385 -53.27392106 420.50178939 -53.27618408 418.04699707 C-53.27709226 412.77814894 -53.26581489 407.50954669 -53.24323273 402.24076271 C-53.21060505 394.62320421 -53.20029477 387.0057413 -53.19528076 379.38812049 C-53.18654491 367.02651471 -53.15997597 354.66501503 -53.12207031 342.3034668 C-53.0853058 330.30151904 -53.05701584 318.29960019 -53.04003906 306.29760742 C-53.03898817 305.55673548 -53.03793727 304.81586354 -53.03685454 304.05254094 C-53.03163406 300.33548435 -53.02657931 296.61842757 -53.02160692 292.90137064 C-52.98019817 262.10669601 -52.90949745 231.31215324 -52.8203125 200.51757812 C-53.64015625 200.56398437 -54.46 200.61039063 -55.3046875 200.65820312 C-56.38234375 200.69429687 -57.46 200.73039063 -58.5703125 200.76757812 C-59.63765625 200.81398437 -60.705 200.86039063 -61.8046875 200.90820312 C-65.48805723 200.43108269 -66.57293672 199.40384782 -68.8203125 196.51757812 C-69.32824707 194.54492188 -69.32824707 194.54492188 -69.33789062 192.45507812 C-69.35049927 191.66746094 -69.36310791 190.87984375 -69.37609863 190.06835938 C-69.36395325 188.80572266 -69.36395325 188.80572266 -69.3515625 187.51757812 C-69.3553894 186.64488281 -69.35921631 185.7721875 -69.36315918 184.87304688 C-69.3658774 183.0305872 -69.35852244 181.18808888 -69.34179688 179.34570312 C-69.32038498 176.52711879 -69.34160051 173.71108328 -69.3671875 170.89257812 C-69.36454421 169.10090584 -69.35941919 167.30923514 -69.3515625 165.51757812 C-69.35965942 164.67582031 -69.36775635 163.8340625 -69.37609863 162.96679688 C-69.35718567 161.78537109 -69.35718567 161.78537109 -69.33789062 160.58007812 C-69.33470825 159.89042969 -69.33152588 159.20078125 -69.32824707 158.49023438 C-68.8203125 156.51757812 -68.8203125 156.51757812 -64.8203125 152.51757812 C-60.8603125 152.51757812 -56.9003125 152.51757812 -52.8203125 152.51757812 C-52.8203125 141.95757812 -52.8203125 131.39757812 -52.8203125 120.51757812 C-56.7803125 120.51757812 -60.7403125 120.51757812 -64.8203125 120.51757812 C-69.3214568 116.01643383 -69.3214568 116.01643383 -69.33789062 112.45507812 C-69.35680359 111.27365234 -69.35680359 111.27365234 -69.37609863 110.06835938 C-69.36800171 109.22660156 -69.35990479 108.38484375 -69.3515625 107.51757812 C-69.3553894 106.64488281 -69.35921631 105.7721875 -69.36315918 104.87304688 C-69.3658774 103.0305872 -69.35852244 101.18808888 -69.34179688 99.34570312 C-69.32038498 96.52711879 -69.34160051 93.71108328 -69.3671875 90.89257812 C-69.36454421 89.10090584 -69.35941919 87.30923514 -69.3515625 85.51757812 C-69.35965942 84.67582031 -69.36775635 83.8340625 -69.37609863 82.96679688 C-69.3168675 79.2668382 -69.2146514 77.12901442 -67.17773438 73.97070312 C-64.11987975 72.08582836 -62.13640183 72.11253076 -58.5703125 72.26757812 C-57.49265625 72.30367188 -56.415 72.33976562 -55.3046875 72.37695312 C-54.48484375 72.42335938 -53.665 72.46976562 -52.8203125 72.51757812 C-52.84125977 71.33317139 -52.86220703 70.14876465 -52.88378906 68.9284668 C-52.9567992 64.48734881 -53.00233173 60.04628264 -53.04003906 55.60473633 C-53.06001669 53.69123378 -53.08720849 51.7777912 -53.12207031 49.86450195 C-53.38894335 34.82934585 -52.72181009 22.93716669 -41.8203125 11.51757812 C-29.47335029 -0.26921945 -16.10952184 -0.06644924 0 0 Z M-31.0703125 25.95507812 C-36.3522699 32.43685353 -36.94417682 39.29785034 -36.94894695 47.47767353 C-36.95069999 48.1572497 -36.95245303 48.83682587 -36.95425919 49.53699526 C-36.95890875 51.81271401 -36.95645638 54.08836858 -36.95402527 56.36408997 C-36.95589377 58.01277474 -36.95819462 59.66145907 -36.96089059 61.3101427 C-36.96701019 65.83984566 -36.96687481 70.36953017 -36.96569622 74.89923632 C-36.96549225 79.78483212 -36.97101056 84.67042198 -36.97575378 89.55601501 C-36.98406173 99.12745278 -36.98680869 108.69888439 -36.98736616 118.27032546 C-36.98784125 126.0499504 -36.98989561 133.82957332 -36.99306679 141.60919762 C-37.00187369 163.66317015 -37.0064861 185.71713782 -37.00573631 207.77111212 C-37.00569636 208.96015342 -37.0056564 210.14919472 -37.00561523 211.37426758 C-37.00557435 212.56475968 -37.00553347 213.75525179 -37.00549135 214.98181941 C-37.00508485 234.27794773 -37.01465532 253.57405654 -37.0287536 272.87017921 C-37.04311355 292.68066141 -37.050024 312.49113408 -37.04915982 332.30162162 C-37.04882773 343.42476614 -37.05158041 354.54789021 -37.06233788 365.67103004 C-37.07143784 375.14104958 -37.07362226 384.61103939 -37.06682845 394.0810614 C-37.06356073 398.91249961 -37.06351568 403.74388077 -37.0721817 408.57531357 C-37.08003641 412.99994126 -37.07862577 417.42446656 -37.06989757 421.84909173 C-37.06836032 423.44798567 -37.07018721 425.04688722 -37.07575765 426.6457722 C-37.40822082 442.04138062 -37.40822082 442.04138062 -30.8203125 455.51757812 C-22.86241481 463.41863369 -15.3060884 464.67305688 -4.26286316 464.65129089 C-3.41470781 464.65355645 -2.56655246 464.65582201 -1.69269544 464.65815622 C1.14213951 464.66447349 3.97692638 464.66366831 6.81176758 464.6628418 C8.84728558 464.66583471 10.88280301 464.66923754 12.9183197 464.67301941 C18.44318892 464.68185024 23.96804266 464.68419714 29.49291825 464.6848352 C32.9460677 464.68554623 36.39921321 464.68768155 39.85236168 464.69033241 C51.90328598 464.69958284 63.95419922 464.70366768 76.00512695 464.70288086 C87.23178099 464.70228016 98.45838697 464.71283121 109.68502885 464.72862452 C119.32937433 464.7417076 128.9737041 464.74706443 138.61805838 464.74642545 C144.37564165 464.74617069 150.13318219 464.74900999 155.89075661 464.7596035 C161.3071907 464.76929734 166.72354134 464.7693548 172.13997841 464.76208687 C174.12448753 464.76104263 176.10900188 464.76339437 178.09350204 464.76944733 C180.80952786 464.77719297 183.52526734 464.77250546 186.24128723 464.76481628 C187.02029619 464.76995985 187.79930514 464.77510341 188.60192043 464.78040284 C197.49989842 464.72501316 205.31314013 463.41913663 211.80859375 456.87695312 C218.52901652 449.42780982 219.3565591 441.8729621 219.2421875 432.14257812 C219.23541992 431.03849609 219.23541992 431.03849609 219.22851562 429.91210938 C219.21683892 428.11389654 219.19890761 426.31572615 219.1796875 424.51757812 C218.53233643 424.4528833 217.88498535 424.38818848 217.21801758 424.3215332 C188.89654158 421.41222013 163.32277407 415.06070804 138.1796875 401.51757812 C137.26944824 401.03635498 137.26944824 401.03635498 136.34082031 400.54541016 C127.23124916 395.7054896 119.12624635 390.04727252 111.1796875 383.51757812 C110.60186523 383.04803711 110.02404297 382.57849609 109.42871094 382.09472656 C73.26180158 352.56467223 49.74894996 309.00122332 44.45703125 262.57226562 C41.62156309 234.24857275 44.4881457 207.55974226 53.1796875 180.51757812 C53.41026855 179.79973145 53.64084961 179.08188477 53.87841797 178.34228516 C64.1816053 147.08853536 85.12014176 117.59683868 111.1796875 97.51757812 C112.11683594 96.7415625 113.05398437 95.96554688 114.01953125 95.16601562 C143.97594075 70.87703495 181.21764728 59.53733842 219.1796875 56.51757812 C219.99892807 40.02329237 219.99892807 40.02329237 213.1796875 25.51757812 C206.93264431 19.31515667 201.1899245 16.75414154 192.29541016 16.40405273 C190.83433838 16.41190796 190.83433838 16.41190796 189.34375 16.41992188 C187.74853516 16.42475586 187.74853516 16.42475586 186.12109375 16.4296875 C184.47947266 16.44225586 184.47947266 16.44225586 182.8046875 16.45507812 C181.68707031 16.45958984 180.56945312 16.46410156 179.41796875 16.46875 C176.67181946 16.48048568 173.92578164 16.4969045 171.1796875 16.51757812 C171.15390625 17.50757812 171.128125 18.49757813 171.1015625 19.51757812 C170.78814349 27.82318194 170.49312639 34.95824249 164.53515625 41.25585938 C159.75475287 45.61966987 155.41994808 47.76091133 148.84880066 47.78500366 C147.79330521 47.79353363 146.73780975 47.8020636 145.65032959 47.81085205 C144.50268127 47.80994568 143.35503296 47.80903931 142.17260742 47.80810547 C140.95577774 47.81482269 139.73894806 47.82153992 138.48524475 47.82846069 C135.15445491 47.8441894 131.82391445 47.85081491 128.4931047 47.85209227 C126.4093512 47.85351618 124.32562364 47.85779034 122.2418766 47.8630867 C114.96421277 47.88157883 107.68662209 47.88975847 100.40893555 47.88818359 C93.63842134 47.88698289 86.86822628 47.90807308 80.0977928 47.93967092 C74.27424542 47.96587541 68.45080198 47.97654913 62.62719613 47.97527277 C59.1538125 47.9747643 55.68071253 47.98038343 52.20738792 48.00162888 C48.32978378 48.02470045 44.45261266 48.01546481 40.57495117 48.00341797 C39.43337555 48.01465698 38.29179993 48.025896 37.1156311 48.03747559 C29.49163502 47.97736258 24.09379944 46.89519982 18.15625 41.77148438 C17.48722656 40.93423828 17.48722656 40.93423828 16.8046875 40.08007812 C16.34320313 39.52449219 15.88171875 38.96890625 15.40625 38.39648438 C12.34461612 33.70652928 11.80718714 29.20220566 11.5546875 23.70507812 C11.49667969 22.66577148 11.49667969 22.66577148 11.4375 21.60546875 C11.34395182 19.90990798 11.26076386 18.21378101 11.1796875 16.51757812 C7.3672537 16.45884884 3.55493844 16.42373896 -0.2578125 16.39257812 C-1.32708984 16.37582031 -2.39636719 16.3590625 -3.49804688 16.34179688 C-14.70289019 16.27326572 -23.23910839 17.2747073 -31.0703125 25.95507812 Z M27.1796875 16.51757812 C26.92655505 24.32475723 26.92655505 24.32475723 30.1796875 30.51757812 C35.01132159 33.37222894 40.50313935 32.80542699 45.93334961 32.79223633 C47.01684189 32.79734726 48.10033417 32.80245819 49.21665955 32.807724 C52.7968397 32.82161956 56.37682734 32.82066328 59.95703125 32.81835938 C62.44657971 32.82224619 64.9361275 32.82658083 67.42567444 32.8313446 C72.64342397 32.83880665 77.86110583 32.83851551 83.07885742 32.83325195 C88.43602704 32.82787971 93.7930077 32.83492606 99.15014648 32.85375977 C105.62038196 32.87621551 112.09045959 32.88401283 118.56073189 32.8800869 C121.02589021 32.88060035 123.49105225 32.88584248 125.95619011 32.89589882 C129.4031868 32.90823517 132.84964282 32.90148794 136.29663086 32.88989258 C137.31448669 32.89753632 138.33234253 32.90518005 139.38104248 32.91305542 C144.71688232 32.87338301 148.6006475 32.58857836 153.1796875 29.51757812 C155.96028931 25.09389342 155.1796875 22.15633181 155.1796875 16.51757812 C112.9396875 16.51757812 70.6996875 16.51757812 27.1796875 16.51757812 Z M125.1796875 107.51757812 C124.24898438 108.22398438 123.31828125 108.93039063 122.359375 109.65820312 C87.18713233 137.34480814 65.72102567 178.36058245 60.1796875 222.51757812 C60.05681402 225.12097054 59.9703395 227.69901137 59.94140625 230.30273438 C59.93165771 231.03259552 59.92190918 231.76245667 59.91186523 232.51443481 C59.73797223 248.91580587 60.05941686 264.53417823 64.1796875 280.51757812 C64.45256592 281.63737061 64.45256592 281.63737061 64.73095703 282.77978516 C70.05853543 304.33291062 80.50307952 325.06994426 94.1796875 342.51757812 C94.85386719 343.39542969 95.52804688 344.27328125 96.22265625 345.17773438 C122.42120157 378.34347025 162.01216389 401.48250195 204.10058594 406.89306641 C249.65249632 411.99023485 294.09407625 400.95984166 330.4296875 372.55273438 C335.94303562 368.13897423 341.16946902 363.49882595 346.1796875 358.51757812 C346.66888672 358.03240723 347.15808594 357.54723633 347.66210938 357.04736328 C378.28580384 326.25442213 394.66170294 284.26505675 394.5546875 241.08007812 C394.55437027 239.89495132 394.55437027 239.89495132 394.55404663 238.68588257 C394.51920093 225.6032202 393.45627835 213.22816598 390.1796875 200.51757812 C389.99776855 199.7710498 389.81584961 199.02452148 389.62841797 198.25537109 C379.14510261 155.84431782 350.2093021 118.91733566 313.11474609 96.49316406 C254.22327711 61.79875676 179.56143171 65.63307883 125.1796875 107.51757812 Z " fill="#F38D2D" transform="translate(84.8203125,15.482421875)"/>
<path d="M0 0 C6.19298642 -0.09888089 12.38551332 -0.17147486 18.57910156 -0.21972656 C20.68595382 -0.23984126 22.79275025 -0.26713667 24.89941406 -0.30175781 C27.92787447 -0.35028168 30.95559678 -0.37297016 33.984375 -0.390625 C35.39707672 -0.42159271 35.39707672 -0.42159271 36.83831787 -0.45318604 C37.71892883 -0.45348816 38.59953979 -0.45379028 39.50683594 -0.45410156 C40.27960876 -0.46298401 41.05238159 -0.47186646 41.84857178 -0.48101807 C45.12283188 0.25104366 46.11921778 1.19801832 48 4 C48.55073343 7.34298967 48.46471496 10.63574944 48.390625 14.015625 C48.38496521 14.98659119 48.37930542 15.95755737 48.37347412 16.95794678 C48.35110311 20.05580169 48.30090473 23.15249533 48.25 26.25 C48.22993597 28.35154578 48.21168503 30.45310972 48.1953125 32.5546875 C48.1512358 37.7035717 48.08220258 42.85158903 48 48 C49.32413218 47.99446924 49.32413218 47.99446924 50.6750145 47.98882675 C72.14023798 47.90054426 93.60543024 47.83432378 115.07079697 47.79275131 C125.45123559 47.77211354 135.83155314 47.74396974 146.21191406 47.69824219 C155.25793609 47.65841161 164.30387045 47.63257603 173.34997773 47.62364602 C178.14122254 47.61842486 182.93221651 47.60612807 187.72338104 47.57707977 C192.23118799 47.54997035 196.73864028 47.54154591 201.246521 47.54756927 C202.90256934 47.54646703 204.55862929 47.53848643 206.21460724 47.5231781 C208.4732419 47.50331932 210.73053197 47.50804461 212.98919678 47.51898193 C214.25389675 47.51529476 215.51859673 47.51160759 216.82162094 47.50780869 C220 48 220 48 222.41735744 49.68203926 C224.38108005 52.55813525 224.45590405 54.11005512 224.33308411 57.56838989 C224.2963238 58.63330784 224.25956348 59.69822578 224.22168922 60.79541397 C223.89385381 65.53437584 223.35618606 70.20605301 222.6706543 74.90576172 C222.45842728 76.43012093 222.45842728 76.43012093 222.24191284 77.98527527 C221.7778192 81.30133783 221.30157601 84.61551032 220.82421875 87.9296875 C220.49467349 90.25222807 220.16556385 92.57483048 219.83686829 94.89749146 C219.14885991 99.74465104 218.45462505 104.59086814 217.75610352 109.43652344 C216.86223091 115.64189725 215.98555512 121.84956199 215.11366558 128.05805779 C214.43907245 132.84608501 213.75466537 137.63267041 213.06736183 142.41888809 C212.74003199 144.70773962 212.41592514 146.9970545 212.09512901 149.2868309 C211.64600776 152.48296641 211.1835122 155.67689083 210.7175293 158.87060547 C210.58805405 159.81200882 210.4585788 160.75341217 210.32518005 161.7233429 C209.59094216 166.64915325 208.68714015 170.69851166 206 175 C203.36115323 176.31942338 201.40075259 176.12289871 198.44454956 176.12025452 C197.26381866 176.12162918 196.08308777 176.12300385 194.86657715 176.12442017 C192.91370789 176.11902725 192.91370789 176.11902725 190.92138672 176.11352539 C189.54179893 176.11324343 188.16221099 176.11340142 186.78262329 176.1139679 C183.03078219 176.11425553 179.27897288 176.1083642 175.52713919 176.10139394 C171.60868076 176.09515484 167.69022166 176.09455616 163.77175903 176.09336853 C156.34863184 176.09025686 148.92551933 176.08204567 141.50239861 176.07201904 C133.0526964 176.06085282 124.60299349 176.05534617 116.15328574 176.05032361 C98.76884842 176.03986293 81.38442632 176.0220659 64 176 C64 181.28 64 186.56 64 192 C103.6 192 143.2 192 184 192 C184 197.28 184 202.56 184 208 C181.36 208.33 178.72 208.66 176 209 C176.04640625 209.9178125 176.0928125 210.835625 176.140625 211.78125 C176.53963487 225.34758555 176.53963487 225.34758555 172 231 C167.19551361 236.04521222 162.83822945 239.60562995 155.73046875 240.3359375 C147.21423427 240.42983204 141.32404506 240.1177288 135.03515625 234.12890625 C127.56137314 226.04377073 127.79744068 219.83692358 128 209 C122.72 209 117.44 209 112 209 C112.0825 211.145 112.165 213.29 112.25 215.5 C112.2197467 223.01038106 111.3220345 227.511517 106.12890625 232.96484375 C99.22505269 239.3466668 93.79832071 240.48042252 84.4453125 240.3046875 C76.58319245 239.60939797 72.45041296 235.95245981 67.4453125 230.09765625 C64.15335923 225.31987542 63.76737921 221.44521238 63.875 215.6875 C63.89304687 214.43324219 63.91109375 213.17898438 63.9296875 211.88671875 C63.95289063 210.93410156 63.97609375 209.98148438 64 209 C62.77023437 208.96132813 62.77023437 208.96132813 61.515625 208.921875 C60.43796875 208.86515625 59.3603125 208.8084375 58.25 208.75 C57.18265625 208.70359375 56.1153125 208.6571875 55.015625 208.609375 C51.32617366 207.8638382 50.29585807 206.94501368 48 204 C47.57411194 201.15324402 47.57411194 201.15324402 47.65649414 197.77026367 C47.66378036 196.47204178 47.67106659 195.17381989 47.67857361 193.83625793 C47.68722883 193.13212076 47.69588406 192.42798359 47.70480156 191.70250893 C47.83357464 175.67652593 46.05029958 160.12024358 43.62109375 144.30078125 C43.45612019 143.21331478 43.29114662 142.12584831 43.12117386 141.00542831 C41.57799822 130.84943107 39.98289949 120.70186891 38.35375977 110.55932617 C33.26684156 78.75736625 31.02364903 48.2086426 32 16 C21.44 16 10.88 16 0 16 C0 10.72 0 5.44 0 0 Z M50 64 C50.144375 65.8975 50.28875 67.795 50.4375 69.75 C50.51871094 70.81734375 50.59992188 71.8846875 50.68359375 72.984375 C50.94913876 76.1931585 50.94913876 76.1931585 52 80 C58.6 80 65.2 80 72 80 C72 74.72 72 69.44 72 64 C64.74 64 57.48 64 50 64 Z M88 64 C88 69.28 88 74.56 88 80 C98.56 80 109.12 80 120 80 C120 74.72 120 69.44 120 64 C109.44 64 98.88 64 88 64 Z M136 64 C136 69.28 136 74.56 136 80 C146.56 80 157.12 80 168 80 C168 74.72 168 69.44 168 64 C157.44 64 146.88 64 136 64 Z M184 64 C184 69.28 184 74.56 184 80 C190.6 80 197.2 80 204 80 C204.33 78.288125 204.66 76.57625 205 74.8125 C205.185625 73.84957031 205.37125 72.88664062 205.5625 71.89453125 C206.12454135 68.66392688 206.12454135 68.66392688 206 64 C198.74 64 191.48 64 184 64 Z M54 96 C54.54867386 100.0754984 55.09909909 104.15069951 55.65405273 108.2253418 C55.842269 109.61126842 56.0294519 110.9973358 56.21557617 112.38354492 C56.48343899 114.37715858 56.75533903 116.37022848 57.02734375 118.36328125 C57.18968506 119.56251221 57.35202637 120.76174316 57.51928711 121.99731445 C57.92304551 125.0396073 57.92304551 125.0396073 59 128 C63.29 128 67.58 128 72 128 C72 117.44 72 106.88 72 96 C66.06 96 60.12 96 54 96 Z M88 96 C88 106.56 88 117.12 88 128 C98.56 128 109.12 128 120 128 C120 117.44 120 106.88 120 96 C109.44 96 98.88 96 88 96 Z M136 96 C136 106.56 136 117.12 136 128 C146.56 128 157.12 128 168 128 C168 117.44 168 106.88 168 96 C157.44 96 146.88 96 136 96 Z M184 96 C184 106.56 184 117.12 184 128 C188.29 128 192.58 128 197 128 C198.95400748 117.3571726 200.64491803 106.73641867 202 96 C196.06 96 190.12 96 184 96 Z M61 144 C61.66 149.28 62.32 154.56 63 160 C65.97 160 68.94 160 72 160 C72 154.72 72 149.44 72 144 C68.37 144 64.74 144 61 144 Z M88 144 C88 149.28 88 154.56 88 160 C98.56 160 109.12 160 120 160 C120 154.72 120 149.44 120 144 C109.44 144 98.88 144 88 144 Z M136 144 C136 149.28 136 154.56 136 160 C146.56 160 157.12 160 168 160 C168 154.72 168 149.44 168 144 C157.44 144 146.88 144 136 144 Z M184 144 C184 149.28 184 154.56 184 160 C186.97 160 189.94 160 193 160 C193.66 154.72 194.32 149.44 195 144 C191.37 144 187.74 144 184 144 Z M82.625 210.625 C80.51293494 213.71186432 80.38804855 215.3282913 81 219 C82.5 221.5 82.5 221.5 85 223 C88.6717087 223.61195145 90.28813568 223.48706506 93.375 221.375 C95.48706506 218.28813568 95.61195145 216.6717087 95 213 C93.5 210.5 93.5 210.5 91 209 C87.3282913 208.38804855 85.71186432 208.51293494 82.625 210.625 Z M146.625 210.625 C144.51293494 213.71186432 144.38804855 215.3282913 145 219 C146.5 221.5 146.5 221.5 149 223 C152.6717087 223.61195145 154.28813568 223.48706506 157.375 221.375 C159.48706506 218.28813568 159.61195145 216.6717087 159 213 C157.5 210.5 157.5 210.5 155 209 C151.3282913 208.38804855 149.71186432 208.51293494 146.625 210.625 Z " fill="#F0803D" transform="translate(208,152)"/>
</svg>
